<svg width="112" height="112" viewBox="0 0 112 112" fill="none" xmlns="http://www.w3.org/2000/svg">
<path d="M18.8275 107.13C18.3843 107.035 17.9055 106.991 17.4623 107.086C14.9338 107.641 9.44946 106.932 7.9933 106.231C0.46319 102.588 -0.375686 89.8053 7.79545 74.5586C7.92603 74.3163 7.9933 74.0555 7.9933 73.7948C7.9933 73.7948 7.89833 51.3581 7.71631 51.0753C6.83391 49.6873 4.13526 45.1045 4.16691 41.0835C4.20252 36.7724 13.901 23.6445 15.8954 20.9932C16.1288 20.6811 16.2515 20.3323 16.2515 19.9687V15.228C16.2515 14.6882 15.9745 14.1667 15.4799 13.7848L12.7931 11.7027C12.2985 11.3208 12.0215 10.8031 12.0215 10.2596V6.81147C12.0215 5.68412 13.1967 4.77344 14.6489 4.77344H29.5746C31.0268 4.77344 32.202 5.6878 32.202 6.81147V10.3C32.202 10.8398 31.925 11.3612 31.4304 11.7431L28.7555 13.8179C28.2609 14.1998 27.9839 14.7176 27.9839 15.261V20.0495C27.9839 20.402 28.0986 20.7435 28.3202 21.0483C30.2552 23.6959 39.8667 37.0074 40.0249 40.5804C40.1911 44.3223 37.8684 48.8096 36.5191 51.101C36.3608 51.3691 36.2856 73.7397 36.2856 73.7397C36.2856 74.0115 36.3489 74.2685 36.4835 74.5182C38.1572 77.6102 49.49 99.6723 35.3795 106.466C33.0132 107.365 32.4909 107.171 30.4174 107.241C29.2818 107.277 28.2688 107.219 27.4062 107.123C27.0857 107.086 26.7533 107.09 26.4407 107.149C24.1654 107.549 22.82 108.012 18.8156 107.13H18.8275Z" fill="#B0B0B0" stroke="#BE1622" stroke-width="3" stroke-miterlimit="10"/>
<path d="M8.11719 51.2539H36.0375" stroke="#BE1622" stroke-width="3" stroke-miterlimit="10"/>
<path d="M8.55469 51.3672L35.379 73.6387" stroke="#BE1622" stroke-width="3" stroke-miterlimit="10"/>
<path d="M8.48047 73.8359H35.7796" stroke="#BE1622" stroke-width="3" stroke-miterlimit="10"/>
<path d="M3.48139 93.5C4.37261 90.5647 7.80348 102.134 19.0695 96.0449C30.7469 89.7336 40.4971 91.081 40.9008 91.2012C42.3138 102.196 39.4823 104.967 34.4129 105.688C29.3474 106.409 12.418 106.467 9.53861 104.748C3.47902 101.128 2.55207 97.2511 3.48139 93.5Z" fill="#71CBF4"/>
<path d="M2.74609 92.9506C2.74609 92.9506 8.39433 91.3438 21.9493 96.0499C35.5082 100.752 40.4899 90.8795 40.8974 91.0011C42.3104 102.127 38.81 106.457 33.7407 107.186C28.6752 107.916 11.7457 107.975 8.86634 106.236C2.80676 102.572 2.54919 96.6121 3.4785 92.8163" fill="#0094D5"/>
</svg>
