<?xml version="1.0" encoding="UTF-8"?>
<svg id="Calque_2" data-name="Calque 2" xmlns="http://www.w3.org/2000/svg" viewBox="0 0 10.75 33">
  <defs>
    <style>
      .cls-1 {
        fill: #71cbf4;
      }

      .cls-1, .cls-2, .cls-3, .cls-4 {
        stroke: #be1622;
        stroke-miterlimit: 10;
      }

      .cls-2 {
        fill: none;
      }

      .cls-3 {
        fill: #c6c6c6;
      }

      .cls-4 {
        fill: #0094d5;
      }
    </style>
  </defs>
  <g id="Calque_2-2" data-name="Calque 2">
    <path class="cls-3" d="M4.56,32.34c-.11-.03-.22-.04-.33-.01-.61.17-1.93-.05-2.29-.27-1.82-1.13-2.02-5.11-.05-9.85.03-.07.05-.16.05-.24,0,0-.02-6.98-.07-7.07-.21-.43-.86-1.86-.86-3.11,0-1.34,2.35-5.42,2.83-6.25.06-.1.09-.21.09-.32v-1.48c0-.17-.07-.33-.19-.45l-.65-.65c-.12-.12-.19-.28-.19-.45v-1.07c0-.35.28-.63.63-.63h3.6c.35,0,.63.28.63.63v1.09c0,.17-.07.33-.19.45l-.65.65c-.12.12-.19.28-.19.45v1.49c0,.11.03.22.08.31.47.82,2.79,4.97,2.82,6.08.04,1.16-.52,2.56-.85,3.27-.04.08-.06,7.04-.06,7.04,0,.08.02.16.05.24.4.96,3.14,7.83-.27,9.94-.57.28-.7.22-1.2.24-.27.01-.52,0-.73-.04-.08-.01-.16,0-.23,0-.55.12-.87.27-1.84,0Z"/>
    <line class="cls-2" x1="2.14" y1="15.04" x2="8.55" y2="15.04"/>
    <line class="cls-2" x1="2.24" y1="15.07" x2="8.4" y2="21.66"/>
    <line class="cls-2" x1="2.22" y1="21.72" x2="8.49" y2="21.72"/>
    <path class="cls-1" d="M.78,27.32c.21-.88,1.21,2.69,3.89.87s5.11-1.48,5.21-1.45c.34,3.28-.58,4.66-1.79,4.87s-5.25.23-5.94-.28c-1.45-1.08-1.6-2.9-1.37-4.01"/>
    <path class="cls-4" d="M.79,27.32s1.35-.47,4.58.91c3.23,1.39,4.42-1.52,4.52-1.49.34,3.28-.58,4.66-1.79,4.87-1.21.21-5.25.23-5.94-.28-1.45-1.08-1.6-2.9-1.37-4.01"/>
  </g>
</svg>