<svg width="32" height="32" viewBox="0 0 32 32" fill="none" xmlns="http://www.w3.org/2000/svg">
<g clip-path="url(#clip0_110_64)">
<rect width="32" height="32" rx="5" fill="#2E2E2E"/>
<path d="M15.093 30.6081C14.9664 30.5809 14.8296 30.5683 14.703 30.5955C13.9805 30.754 12.4136 30.5515 11.9975 30.3511C9.84607 29.3103 9.60639 25.6581 11.941 21.3019C11.9783 21.2327 11.9975 21.1582 11.9975 21.0837C11.9975 21.0837 11.9704 14.6732 11.9184 14.5924C11.6663 14.1958 10.8952 12.8864 10.9043 11.7376C10.9144 10.5058 13.6855 6.75502 14.2553 5.99751C14.322 5.90833 14.357 5.80866 14.357 5.70479V4.3503C14.357 4.19607 14.2779 4.04708 14.1366 3.93797L13.3689 3.34308C13.2276 3.23397 13.1484 3.08603 13.1484 2.93076V1.94558C13.1484 1.62348 13.4842 1.36328 13.8991 1.36328H18.1636C18.5785 1.36328 18.9143 1.62453 18.9143 1.94558V2.9423C18.9143 3.09653 18.8352 3.24551 18.6938 3.35463L17.9296 3.94741C17.7883 4.05653 17.7091 4.20446 17.7091 4.35974V5.72787C17.7091 5.82859 17.7419 5.92617 17.8052 6.01325C18.3581 6.76971 21.1042 10.573 21.1494 11.5938C21.1969 12.663 20.5333 13.9451 20.1477 14.5997C20.1025 14.6763 20.081 21.0679 20.081 21.0679C20.081 21.1456 20.0991 21.219 20.1376 21.2904C20.6158 22.1738 23.8537 28.4772 19.8221 30.4182C19.1461 30.6753 18.9968 30.6197 18.4044 30.6396C18.0799 30.6501 17.7905 30.6333 17.5441 30.606C17.4525 30.5955 17.3575 30.5966 17.2682 30.6134C16.6181 30.7277 16.2337 30.8599 15.0896 30.6081H15.093Z" fill="#B0B0B0" stroke="#BE1622" stroke-miterlimit="10"/>
<path d="M12.0312 14.6445H20.0085" stroke="#BE1622" stroke-miterlimit="10"/>
<path d="M12.1562 14.6758L19.8203 21.0391" stroke="#BE1622" stroke-miterlimit="10"/>
<path d="M12.1367 21.0938H19.9365" stroke="#BE1622" stroke-miterlimit="10"/>
<path d="M10.7095 26.7143C10.9642 25.8756 11.9444 29.1812 15.1633 27.4414C18.4997 25.6382 21.2854 26.0232 21.4008 26.0575C21.8045 29.1989 20.9955 29.9905 19.5471 30.1965C18.0998 30.4026 13.2628 30.4192 12.4402 29.9281C10.7088 28.8938 10.444 27.786 10.7095 26.7143Z" fill="#71CBF4"/>
<path d="M10.4961 26.5573C10.4961 26.5573 12.1099 26.0982 15.9827 27.4428C19.8567 28.7864 21.28 25.9656 21.3965 26.0003C21.8002 29.1791 20.8001 30.4162 19.3517 30.6247C17.9044 30.8332 13.0674 30.85 12.2447 30.353C10.5134 29.3064 10.4398 27.6035 10.7054 26.5189" fill="#0094D5"/>
</g>
<defs>
<clipPath id="clip0_110_64">
<rect width="32" height="32" fill="white"/>
</clipPath>
</defs>
</svg>
