<svg width="16" height="16" viewBox="0 0 16 16" fill="none" xmlns="http://www.w3.org/2000/svg">
<g clip-path="url(#clip0_110_64)">
<rect width="16" height="16" rx="4" fill="#2E2E2E"/>
<path d="M7.54846 15.306C7.48514 15.2924 7.41674 15.2861 7.35343 15.2997C6.99222 15.3789 6.20874 15.2777 6.00072 15.1775C4.92499 14.6571 4.80515 12.831 5.97245 10.6529C5.99111 10.6183 6.00072 10.581 6.00072 10.5438C6.00072 10.5438 5.98715 7.33854 5.96115 7.29815C5.83509 7.09986 5.44957 6.44517 5.45409 5.87074C5.45918 5.25487 6.84468 3.37946 7.12958 3.00071C7.16293 2.95612 7.18046 2.90628 7.18046 2.85435V2.1771C7.18046 2.09999 7.14089 2.0255 7.07023 1.97094L6.6864 1.6735C6.61574 1.61894 6.57617 1.54497 6.57617 1.46733V0.974741C6.57617 0.813692 6.74406 0.683594 6.95152 0.683594H9.08376C9.29122 0.683594 9.4591 0.814216 9.4591 0.974741V1.4731C9.4591 1.55022 9.41954 1.62471 9.34888 1.67927L8.96674 1.97566C8.89608 2.03022 8.85651 2.10418 8.85651 2.18182V2.86589C8.85651 2.91625 8.87291 2.96504 8.90456 3.00858C9.18099 3.38681 10.5541 5.28845 10.5767 5.79887C10.6004 6.33343 10.2686 6.97448 10.0758 7.30182C10.0532 7.34012 10.0425 10.5359 10.0425 10.5359C10.0425 10.5747 10.0515 10.6115 10.0707 10.6471C10.3099 11.0888 11.9288 14.2406 9.91302 15.2111C9.57499 15.3396 9.50037 15.3118 9.20416 15.3218C9.04193 15.327 8.89722 15.3186 8.77398 15.305C8.7282 15.2997 8.68071 15.3002 8.63606 15.3086C8.31102 15.3658 8.11882 15.4319 7.54676 15.306H7.54846Z" fill="#B0B0B0" stroke="#BE1622" stroke-width="0.5" stroke-miterlimit="10"/>
<path d="M6.01953 7.32422H10.0082" stroke="#BE1622" stroke-width="0.5" stroke-miterlimit="10"/>
<path d="M6.08203 7.33984L9.91407 10.5215" stroke="#BE1622" stroke-width="0.5" stroke-miterlimit="10"/>
<path d="M6.07031 10.5508H9.97019" stroke="#BE1622" stroke-width="0.5" stroke-miterlimit="10"/>
<path d="M5.35672 13.3571C5.48403 12.9378 5.97416 14.5906 7.58359 13.7207C9.25179 12.8191 10.6447 13.0116 10.7023 13.0287C10.9042 14.5994 10.4997 14.9953 9.77551 15.0983C9.05186 15.2013 6.63337 15.2096 6.22203 14.964C5.35638 14.4469 5.22396 13.893 5.35672 13.3571Z" fill="#71CBF4"/>
<path d="M5.25 13.2787C5.25 13.2787 6.05689 13.0491 7.99332 13.7214C9.93029 14.3932 10.642 12.9828 10.7002 13.0002C10.902 14.5896 10.402 15.2081 9.6778 15.3123C8.95415 15.4166 6.53566 15.425 6.12432 15.1765C5.25867 14.6532 5.22187 13.8017 5.35463 13.2595" fill="#0094D5"/>
</g>
<defs>
<clipPath id="clip0_110_64">
<rect width="16" height="16" fill="white"/>
</clipPath>
</defs>
</svg>
